<?xml version="1.0" standalone="no"?>
<!DOCTYPE svg PUBLIC "-//W3C//DTD SVG 20010904//EN"
 "http://www.w3.org/TR/2001/REC-SVG-20010904/DTD/svg10.dtd">
<svg version="1.0" xmlns="http://www.w3.org/2000/svg"
 width="747.000000pt" height="643.000000pt" viewBox="0 0 747.000000 643.000000"
 preserveAspectRatio="xMidYMid meet">

<g transform="translate(0.000000,643.000000) scale(0.100000,-0.100000)"
fill="#000000" stroke="none">
<path d="M1732 6419 c-38 -11 -175 -145 -210 -205 -12 -21 -196 -473 -407
-1004 -211 -530 -392 -975 -402 -988 -17 -23 -76 -50 -183 -85 -167 -55 -245
-98 -299 -164 -60 -72 -136 -357 -180 -673 -48 -343 -54 -450 -48 -810 7 -346
16 -447 67 -730 45 -254 76 -375 112 -443 55 -102 24 -97 544 -97 l452 0 7
-487 c8 -533 7 -528 68 -591 94 -99 280 -142 610 -142 174 0 233 4 365 25 249
40 403 111 432 199 8 25 8 156 0 493 -5 252 -10 470 -10 486 l0 27 1090 0
1090 0 0 -25 c0 -14 -5 -237 -11 -495 -9 -416 -9 -472 5 -498 44 -85 190 -148
428 -187 213 -34 512 -36 693 -4 189 34 308 107 334 206 5 21 13 253 16 516
l7 477 452 0 c421 0 453 1 481 19 70 42 122 207 184 576 49 291 53 362 49 830
-4 423 -5 434 -37 650 -33 223 -58 343 -112 517 -57 187 -119 242 -369 325
-107 35 -162 59 -179 78 -10 11 -188 448 -396 970 -208 523 -393 979 -413
1015 -44 83 -167 205 -220 219 -49 14 -3962 13 -4010 0z m3789 -486 c60 -32
100 -92 122 -183 9 -36 71 -330 137 -654 134 -647 133 -643 78 -710 -59 -71
111 -66 -2109 -66 l-2011 0 -61 43 c-65 45 -117 94 -117 112 0 6 23 138 51
294 27 156 48 290 45 298 -4 9 -1 11 5 7 8 -5 10 4 7 29 -2 20 -1 34 2 32 3
-2 32 146 64 328 32 183 62 346 67 363 11 36 68 91 119 116 32 15 165 17 1794
17 l1758 1 49 -27z m1295 -2024 c94 -28 126 -43 185 -86 58 -44 129 -144 165
-235 36 -89 36 -243 2 -338 -108 -298 -431 -434 -703 -297 -82 41 -119 71
-171 139 -76 98 -114 208 -114 328 0 123 38 223 125 333 44 56 152 136 185
138 8 0 40 9 70 19 74 25 170 25 256 -1z m-5744 -140 c95 -19 212 -84 272
-151 103 -113 144 -228 133 -376 -7 -101 -42 -187 -115 -281 -98 -127 -210
-188 -368 -198 -142 -10 -261 35 -364 137 -76 75 -115 138 -145 233 -39 126
-28 262 32 384 52 107 222 233 343 256 48 9 160 7 212 -4z m4658 -719 l0 -110
-1925 0 -1925 0 0 110 0 110 1925 0 1925 0 0 -110z m0 -420 l0 -110 -1925 0
-1925 0 0 110 0 110 1925 0 1925 0 0 -110z m10 -415 l0 -105 -1925 0 -1925 0
0 105 0 105 1925 0 1925 0 0 -105z"/>
</g>
</svg>
