<?xml version="1.0" standalone="no"?>
<!DOCTYPE svg PUBLIC "-//W3C//DTD SVG 20010904//EN"
 "http://www.w3.org/TR/2001/REC-SVG-20010904/DTD/svg10.dtd">
<svg version="1.0" xmlns="http://www.w3.org/2000/svg"
 width="239.000000pt" height="211.000000pt" viewBox="0 0 239.000000 211.000000"
 preserveAspectRatio="xMidYMid meet">

<g transform="translate(0.000000,211.000000) scale(0.100000,-0.100000)"
fill="#000000" stroke="none">
<path d="M978 1743 c39 -2 105 -2 145 0 39 1 7 3 -73 3 -80 0 -112 -2 -72 -3z"/>
<path d="M828 1733 c12 -2 30 -2 40 0 9 3 -1 5 -23 4 -22 0 -30 -2 -17 -4z"/>
<path d="M1223 1733 c9 -2 25 -2 35 0 9 3 1 5 -18 5 -19 0 -27 -2 -17 -5z"/>
<path d="M753 1723 c9 -2 23 -2 30 0 6 3 -1 5 -18 5 -16 0 -22 -2 -12 -5z"/>
<path d="M1288 1723 c6 -2 18 -2 25 0 6 3 1 5 -13 5 -14 0 -19 -2 -12 -5z"/>
<path d="M1416 1675 c100 -59 169 -145 229 -285 13 -30 24 -48 25 -40 0 29
-84 182 -129 232 -43 49 -152 128 -174 128 -6 0 16 -16 49 -35z"/>
<path d="M506 1594 c-55 -66 -136 -212 -136 -242 0 -9 11 9 24 40 28 67 74
142 134 216 23 28 40 52 37 52 -2 0 -29 -30 -59 -66z"/>
<path d="M1228 1643 c23 -2 61 -2 85 0 23 2 4 4 -43 4 -47 0 -66 -2 -42 -4z"/>
<path d="M1138 1633 c6 -2 18 -2 25 0 6 3 1 5 -13 5 -14 0 -19 -2 -12 -5z"/>
<path d="M1378 1633 c7 -3 16 -2 19 1 4 3 -2 6 -13 5 -11 0 -14 -3 -6 -6z"/>
<path d="M1098 1623 c7 -3 16 -2 19 1 4 3 -2 6 -13 5 -11 0 -14 -3 -6 -6z"/>
<path d="M1405 1620 c-3 -6 1 -7 9 -4 18 7 21 14 7 14 -6 0 -13 -4 -16 -10z"/>
<path d="M658 1613 c12 -2 30 -2 40 0 9 3 -1 5 -23 4 -22 0 -30 -2 -17 -4z"/>
<path d="M777 1610 c59 -12 90 -30 72 -41 -11 -7 -10 -9 4 -9 9 0 17 -5 17
-12 0 -6 3 -9 6 -6 3 4 0 16 -6 28 -14 26 -68 50 -107 49 -21 -1 -18 -3 14 -9z"/>
<path d="M1440 1616 c0 -3 9 -10 20 -16 11 -6 20 -8 20 -6 0 3 -9 10 -20 16
-11 6 -20 8 -20 6z"/>
<path d="M561 1563 c-53 -55 -114 -165 -132 -238 -7 -27 -20 -61 -31 -74 -10
-13 -18 -31 -18 -40 0 -9 8 0 18 19 17 35 23 37 77 26 27 -6 26 -5 -5 7 -21 9
-35 20 -34 30 2 47 6 58 27 78 12 12 16 19 10 15 -18 -10 -16 -2 8 47 33 65
89 138 123 158 17 10 25 19 17 19 -8 0 -35 -21 -60 -47z"/>
<path d="M976 1569 c-15 -17 -26 -42 -25 -57 1 -25 2 -24 9 6 4 18 18 44 31
58 12 13 20 24 17 24 -4 0 -18 -14 -32 -31z"/>
<path d="M1500 1553 c13 -18 25 -33 27 -33 8 0 -17 38 -33 51 -11 9 -9 2 6
-18z"/>
<path d="M1254 1534 c-18 -14 -18 -15 4 -4 12 6 22 13 22 15 0 8 -5 6 -26 -11z"/>
<path d="M882 1500 c-1 -19 -4 -78 -6 -130 -2 -78 -1 -86 6 -47 5 27 7 86 5
130 -1 45 -4 66 -5 47z"/>
<path d="M1209 1503 c-13 -16 -12 -17 4 -4 9 7 17 15 17 17 0 8 -8 3 -21 -13z"/>
<path d="M1527 1497 c-3 -8 1 -14 8 -14 7 0 11 6 8 14 -3 7 -6 13 -8 13 -2 0
-5 -6 -8 -13z"/>
<path d="M584 1454 c-18 -14 -18 -15 4 -4 12 6 22 13 22 15 0 8 -5 6 -26 -11z"/>
<path d="M1139 1453 c-13 -16 -12 -17 4 -4 9 7 17 15 17 17 0 8 -8 3 -21 -13z"/>
<path d="M943 1425 c0 -22 2 -30 4 -17 2 12 2 30 0 40 -3 9 -5 -1 -4 -23z"/>
<path d="M838 1443 c7 -3 16 -2 19 1 4 3 -2 6 -13 5 -11 0 -14 -3 -6 -6z"/>
<path d="M1084 1408 l-19 -23 23 19 c21 18 27 26 19 26 -2 0 -12 -10 -23 -22z"/>
<path d="M714 1394 c-18 -14 -18 -14 6 -3 31 14 36 19 24 19 -6 0 -19 -7 -30
-16z"/>
<path d="M1580 1405 c0 -5 5 -17 10 -25 5 -8 10 -10 10 -5 0 6 -5 17 -10 25
-5 8 -10 11 -10 5z"/>
<path d="M952 1340 c0 -19 2 -27 5 -17 2 9 2 25 0 35 -3 9 -5 1 -5 -18z"/>
<path d="M624 1344 c-18 -14 -18 -15 4 -4 12 6 22 13 22 15 0 8 -5 6 -26 -11z"/>
<path d="M1299 1343 c-13 -16 -12 -17 4 -4 9 7 17 15 17 17 0 8 -8 3 -21 -13z"/>
<path d="M352 1314 c-7 -8 -8 -14 -3 -14 10 0 25 19 20 25 -2 1 -10 -3 -17
-11z"/>
<path d="M1259 1313 c-13 -16 -12 -17 4 -4 9 7 17 15 17 17 0 8 -8 3 -21 -13z"/>
<path d="M1676 1298 c6 -33 4 -38 -14 -38 -11 0 -23 6 -25 13 -4 10 -6 10 -6
0 -1 -10 -33 -13 -123 -13 -68 0 -166 -7 -218 -15 -122 -19 -117 -19 -89 13
19 21 17 20 -11 -5 -23 -21 -56 -37 -95 -47 l-60 -15 55 6 c30 3 80 6 110 6
53 0 53 0 10 5 l-45 5 70 14 c39 7 158 16 265 20 107 3 200 10 207 15 7 5 45
16 85 23 40 7 59 14 43 14 -17 1 -55 -5 -85 -13 -30 -8 -55 -14 -56 -13 -1 1
-6 16 -12 32 -11 29 -11 29 -6 -7z"/>
<path d="M544 1294 c-18 -14 -18 -15 4 -4 12 6 22 13 22 15 0 8 -5 6 -26 -11z"/>
<path d="M289 1279 l-24 -20 30 17 c39 24 40 24 28 24 -6 0 -21 -9 -34 -21z"/>
<path d="M962 1285 c0 -11 3 -29 8 -40 11 -25 11 1 0 35 -6 20 -8 21 -8 5z"/>
<path d="M1998 1293 c12 -2 32 -2 45 0 12 2 2 4 -23 4 -25 0 -35 -2 -22 -4z"/>
<path d="M2078 1283 c6 -2 18 -2 25 0 6 3 1 5 -13 5 -14 0 -19 -2 -12 -5z"/>
<path d="M2120 1271 c0 -4 18 -11 41 -14 46 -6 76 -29 95 -72 7 -16 13 -23 14
-15 0 35 -38 78 -86 94 -54 18 -64 19 -64 7z"/>
<path d="M862 1250 c0 -14 2 -19 5 -12 2 6 2 18 0 25 -3 6 -5 1 -5 -13z"/>
<path d="M2051 1231 c-17 -16 -31 -33 -31 -38 0 -4 7 1 15 11 8 11 27 28 42
38 16 10 23 18 17 18 -7 0 -26 -13 -43 -29z"/>
<path d="M538 1239 c19 -6 94 -20 167 -32 l132 -23 -28 -34 c-16 -19 -29 -39
-29 -44 0 -5 11 5 25 24 14 19 32 38 40 43 8 4 15 18 14 30 0 12 -3 16 -6 10
-7 -19 -45 -16 -197 12 -141 26 -174 30 -118 14z"/>
<path d="M514 1190 c0 -13 4 -16 10 -10 7 7 7 13 0 20 -6 6 -10 3 -10 -10z"/>
<path d="M1313 1193 c9 -2 23 -2 30 0 6 3 -1 5 -18 5 -16 0 -22 -2 -12 -5z"/>
<path d="M1900 1197 c0 -3 12 -12 26 -22 15 -9 23 -12 20 -6 -7 11 -46 35 -46
28z"/>
<path d="M998 1183 c6 -2 18 -2 25 0 6 3 1 5 -13 5 -14 0 -19 -2 -12 -5z"/>
<path d="M1368 1183 c7 -3 16 -2 19 1 4 3 -2 6 -13 5 -11 0 -14 -3 -6 -6z"/>
<path d="M1405 1172 c6 -5 24 -12 40 -16 34 -7 15 7 -25 19 -16 5 -22 4 -15
-3z"/>
<path d="M1358 1163 c6 -2 18 -2 25 0 6 3 1 5 -13 5 -14 0 -19 -2 -12 -5z"/>
<path d="M1289 1136 c-34 -24 -75 -73 -66 -82 2 -2 10 8 18 23 8 14 34 39 58
55 25 15 41 28 35 28 -5 0 -25 -11 -45 -24z"/>
<path d="M2001 1144 c0 -11 3 -14 6 -6 3 7 2 16 -1 19 -3 4 -6 -2 -5 -13z"/>
<path d="M2270 1108 c0 -55 -26 -107 -69 -135 -19 -13 -29 -23 -23 -23 6 0 24
12 41 26 20 16 31 21 31 12 0 -8 4 -7 11 5 12 20 25 157 15 157 -3 0 -6 -19
-6 -42z"/>
<path d="M1500 1137 c0 -2 15 -16 33 -33 l32 -29 -29 33 c-28 30 -36 37 -36
29z"/>
<path d="M410 1106 c0 -2 8 -10 18 -17 15 -13 16 -12 3 4 -13 16 -21 21 -21
13z"/>
<path d="M171 1084 c0 -11 3 -14 6 -6 3 7 2 16 -1 19 -3 4 -6 -2 -5 -13z"/>
<path d="M2000 1077 c-1 -40 70 -127 103 -127 7 0 -1 8 -18 18 -39 24 -54 44
-71 89 -7 21 -13 30 -14 20z"/>
<path d="M275 1069 c-42 -11 -83 -57 -91 -99 l-6 -35 24 44 c59 109 167 102
224 -15 21 -44 26 -68 26 -129 0 -66 2 -75 18 -75 10 0 26 -7 34 -16 9 -8 16
-11 16 -6 0 5 29 2 65 -6 l65 -16 1 -40 c1 -35 3 -31 9 20 19 145 94 225 209
226 133 1 231 -135 218 -301 -2 -36 -8 -75 -12 -86 -6 -18 -5 -18 5 -3 6 10
14 41 17 68 6 49 23 80 23 43 1 -11 6 -6 14 13 8 18 22 37 33 43 10 6 13 11 7
11 -6 0 -19 -9 -29 -20 -28 -31 -43 -24 -50 23 -24 147 -127 238 -253 224 -23
-2 -61 -17 -83 -31 -48 -32 -99 -108 -99 -148 0 -34 -8 -35 -110 -7 l-78 21
-4 78 c-5 87 -41 177 -81 202 -30 20 -76 27 -112 17z"/>
<path d="M1576 1018 c8 -28 17 -54 20 -57 4 -3 4 3 1 14 -3 11 -8 35 -12 52
-4 18 -10 35 -14 38 -4 2 -2 -19 5 -47z"/>
<path d="M162 1015 c0 -16 2 -22 5 -12 2 9 2 23 0 30 -3 6 -5 -1 -5 -18z"/>
<path d="M1203 970 c0 -25 2 -35 4 -22 2 12 2 32 0 45 -2 12 -4 2 -4 -23z"/>
<path d="M113 945 c0 -27 2 -38 4 -22 2 15 2 37 0 50 -2 12 -4 0 -4 -28z"/>
<path d="M1582 930 c0 -14 2 -19 5 -12 2 6 2 18 0 25 -3 6 -5 1 -5 -13z"/>
<path d="M2128 943 c6 -2 18 -2 25 0 6 3 1 5 -13 5 -14 0 -19 -2 -12 -5z"/>
<path d="M164 925 c3 -21 16 -31 16 -12 0 9 -4 18 -9 21 -5 4 -8 -1 -7 -9z"/>
<path d="M261 914 c-12 -15 -21 -40 -21 -56 0 -106 109 -121 125 -17 l5 34
-11 -35 c-6 -19 -15 -41 -21 -47 -16 -20 -55 -15 -72 9 -32 45 -9 128 34 128
10 0 28 -12 39 -26 12 -15 21 -22 21 -15 0 18 -38 51 -59 51 -11 0 -29 -12
-40 -26z"/>
<path d="M693 898 c-11 -13 -24 -30 -28 -38 -8 -16 -6 -14 34 33 14 15 22 27
19 27 -2 0 -14 -10 -25 -22z"/>
<path d="M1107 900 c12 -14 33 -45 47 -70 14 -25 26 -40 26 -34 0 15 -54 97
-76 114 -15 11 -14 9 3 -10z"/>
<path d="M1210 912 c0 -24 29 -69 64 -100 51 -45 125 -63 171 -42 15 7 10 8
-16 4 -80 -12 -166 35 -200 111 -10 22 -19 34 -19 27z"/>
<path d="M2215 909 c-4 -6 -5 -12 -2 -15 2 -3 7 2 10 11 7 17 1 20 -8 4z"/>
<path d="M1556 865 c-10 -18 -35 -45 -55 -59 -19 -14 -32 -26 -27 -26 29 0
119 100 104 116 -2 2 -12 -12 -22 -31z"/>
<path d="M2145 890 c-4 -6 -30 -24 -58 -40 -29 -16 -47 -30 -41 -30 13 0 100
55 108 69 4 6 5 11 2 11 -3 0 -8 -5 -11 -10z"/>
<path d="M132 874 c9 -9 21 -15 27 -13 6 2 -2 10 -17 17 -25 11 -25 11 -10 -4z"/>
<path d="M171 800 c-1 -36 41 -120 78 -154 25 -24 41 -30 88 -33 41 -3 54 -1
43 6 -12 9 -12 11 3 16 18 8 62 73 54 81 -3 3 -8 -4 -12 -15 -3 -11 -22 -34
-42 -51 -30 -27 -42 -31 -71 -26 -58 9 -110 74 -131 163 -7 29 -9 32 -10 13z"/>
<path d="M1980 805 c-19 -7 -28 -14 -20 -14 8 0 29 6 45 14 39 17 21 18 -25 0z"/>
<path d="M1918 783 c7 -3 16 -2 19 1 4 3 -2 6 -13 5 -11 0 -14 -3 -6 -6z"/>
<path d="M2222 770 c0 -14 2 -19 5 -12 2 6 2 18 0 25 -3 6 -5 1 -5 -13z"/>
<path d="M1760 754 c-65 -14 -85 -21 -52 -18 57 6 210 42 177 42 -11 -1 -67
-11 -125 -24z"/>
<path d="M2180 710 c-19 -17 -70 -48 -115 -69 -187 -91 -369 -125 -667 -126
-108 0 -189 -3 -180 -7 27 -11 296 -9 396 3 87 10 95 10 127 -10 32 -20 122
-30 117 -13 -6 17 54 79 87 91 20 7 39 11 41 8 3 -3 -9 -22 -27 -43 l-33 -39
32 29 c17 16 34 37 37 47 3 10 39 34 80 54 60 30 164 104 145 104 -3 0 -21
-13 -40 -29z m-300 -169 c-26 -50 -78 -63 -133 -34 l-32 16 80 17 c44 10 84
18 88 19 4 0 3 -8 -3 -18z"/>
<path d="M791 704 c-14 -18 -21 -40 -20 -68 l2 -41 6 49 c5 33 15 55 30 67 13
11 19 19 13 19 -6 0 -20 -12 -31 -26z"/>
<path d="M873 719 c11 -6 25 -25 33 -43 7 -17 13 -24 14 -15 0 20 -37 69 -53
69 -7 0 -4 -5 6 -11z"/>
<path d="M1603 723 c9 -2 25 -2 35 0 9 3 1 5 -18 5 -19 0 -27 -2 -17 -5z"/>
<path d="M490 694 c-8 -14 -32 -36 -55 -50 -44 -26 -41 -33 5 -9 28 14 76 72
68 81 -3 2 -11 -8 -18 -22z"/>
<path d="M1528 713 c12 -2 30 -2 40 0 9 3 -1 5 -23 4 -22 0 -30 -2 -17 -4z"/>
<path d="M1408 703 c17 -2 47 -2 65 0 17 2 3 4 -33 4 -36 0 -50 -2 -32 -4z"/>
<path d="M1238 693 c23 -2 61 -2 85 0 23 2 4 4 -43 4 -47 0 -66 -2 -42 -4z"/>
<path d="M661 599 c0 -13 4 -33 9 -44 7 -14 8 -8 3 20 -7 46 -13 59 -12 24z"/>
<path d="M1111 604 c0 -11 3 -14 6 -6 3 7 2 16 -1 19 -3 4 -6 -2 -5 -13z"/>
<path d="M910 600 c0 -8 -10 -24 -22 -37 -15 -16 -17 -22 -7 -18 19 7 45 52
36 62 -4 3 -7 0 -7 -7z"/>
<path d="M780 583 c0 -16 49 -53 69 -52 9 0 6 4 -9 10 -14 5 -33 20 -42 32
-10 12 -18 17 -18 10z"/>
<path d="M1120 574 c0 -4 11 -20 25 -35 l26 -26 -33 -44 c-19 -24 -49 -54 -67
-66 -19 -13 -29 -23 -23 -23 18 0 80 59 113 107 22 31 26 43 15 43 -8 0 -24
12 -35 26 -12 15 -21 23 -21 18z"/>
<path d="M686 510 c11 -41 51 -94 86 -114 30 -17 29 -16 -8 17 -23 20 -51 56
-63 79 -12 24 -18 32 -15 18z"/>
<path d="M1060 503 c0 -17 -71 -93 -104 -110 -17 -9 -51 -20 -76 -24 -37 -5
-30 -6 35 -6 45 -1 68 2 52 6 l-28 6 36 20 c37 19 102 101 91 112 -3 4 -6 2
-6 -4z"/>
<path d="M1008 373 c7 -3 16 -2 19 1 4 3 -2 6 -13 5 -11 0 -14 -3 -6 -6z"/>
</g>
</svg>
